# xmcd CD database file
#
# Track frame offsets:
#	150
#	6923
#	32460
#	53018
#	82015
#	108059
#	145780
#	170647
#	196728
#	222991
#
# Disc length: 3277 seconds
#
# Revision: 0
# Processed by: cddbd v1.4PL0 Copyright (c) Steve Scherf et al.
# Submitted via: CDex 1.50beta9
#
DISCID=7c0ccb0a
DTITLE=Danny Harrington with Tony Germain - Live at the Firehouse
DYEAR=2001
DGENRE=Jazz
TTITLE0=America the Beautiful
TTITLE1=Stella by Starlight
TTITLE2=Nina's Dream
TTITLE3=Medley: Adam's Nocturne, Softly as in a Morning Sunrise
TTITLE4=Day-dream
TTITLE5=Chiona 43 Trilogy
TTITLE6=Moon River
TTITLE7=Smile
TTITLE8=Norwegian Wood
TTITLE9=Just a Closer Walk
EXTD=YEAR: 2001
EXTT0=
EXTT1=
EXTT2=
EXTT3=
EXTT4=
EXTT5=
EXTT6=
EXTT7=
EXTT8=
EXTT9=
PLAYORDER=
